<?xml version="1.0" standalone="no"?><svg xmlns="http://www.w3.org/2000/svg" viewBox="0 0 1440 320"><path fill="rgb(45, 130, 163)" fill-opacity="1" d="M0,224L14.1,224C28.2,224,56,224,85,240C112.9,256,141,288,169,282.7C197.6,277,226,235,254,234.7C282.4,235,311,277,339,293.3C367.1,309,395,299,424,282.7C451.8,267,480,245,508,208C536.5,171,565,117,593,128C621.2,139,649,213,678,218.7C705.9,224,734,160,762,128C790.6,96,819,96,847,133.3C875.3,171,904,245,932,261.3C960,277,988,235,1016,218.7C1044.7,203,1073,213,1101,202.7C1129.4,192,1158,160,1186,133.3C1214.1,107,1242,85,1271,96C1298.8,107,1327,149,1355,154.7C1383.5,160,1412,128,1426,112L1440,96L1440,0L1425.9,0C1411.8,0,1384,0,1355,0C1327.1,0,1299,0,1271,0C1242.4,0,1214,0,1186,0C1157.6,0,1129,0,1101,0C1072.9,0,1045,0,1016,0C988.2,0,960,0,932,0C903.5,0,875,0,847,0C818.8,0,791,0,762,0C734.1,0,706,0,678,0C649.4,0,621,0,593,0C564.7,0,536,0,508,0C480,0,452,0,424,0C395.3,0,367,0,339,0C310.6,0,282,0,254,0C225.9,0,198,0,169,0C141.2,0,113,0,85,0C56.5,0,28,0,14,0L0,0Z"></path></svg>