<?xml version="1.0" standalone="no"?><svg xmlns="http://www.w3.org/2000/svg" viewBox="0 0 1440 320"><path fill="rgb(45, 130, 163)" fill-opacity="1" d="M0,288L26.7,288C53.3,288,107,288,160,272C213.3,256,267,224,320,224C373.3,224,427,256,480,250.7C533.3,245,587,203,640,202.7C693.3,203,747,245,800,218.7C853.3,192,907,96,960,85.3C1013.3,75,1067,149,1120,197.3C1173.3,245,1227,267,1280,256C1333.3,245,1387,203,1413,181.3L1440,160L1440,0L1413.3,0C1386.7,0,1333,0,1280,0C1226.7,0,1173,0,1120,0C1066.7,0,1013,0,960,0C906.7,0,853,0,800,0C746.7,0,693,0,640,0C586.7,0,533,0,480,0C426.7,0,373,0,320,0C266.7,0,213,0,160,0C106.7,0,53,0,27,0L0,0Z"></path></svg>